<mxfile>
    <diagram id="AbFpHW7fQtN4yhbFAR11" name="Page-1">
        <mxGraphModel dx="931" dy="604" grid="1" gridSize="10" guides="1" tooltips="1" connect="1" arrows="1" fold="1" page="1" pageScale="1" pageWidth="850" pageHeight="1100" math="0" shadow="0">
            <root>
                <mxCell id="0"/>
                <mxCell id="1" parent="0"/>
                <mxCell id="2" value="" style="rounded=0;whiteSpace=wrap;html=1;sketch=1;fillColor=#f8cecc;strokeColor=#b85450;" vertex="1" parent="1">
                    <mxGeometry x="330" y="270" width="190" height="50" as="geometry"/>
                </mxCell>
                <mxCell id="3" value="" style="rounded=0;whiteSpace=wrap;html=1;sketch=1;fillColor=#f8cecc;strokeColor=#b85450;" vertex="1" parent="1">
                    <mxGeometry x="330" y="330" width="190" height="50" as="geometry"/>
                </mxCell>
                <mxCell id="4" value="" style="rounded=0;whiteSpace=wrap;html=1;sketch=1;fillColor=#f8cecc;strokeColor=#b85450;" vertex="1" parent="1">
                    <mxGeometry x="330" y="390" width="190" height="50" as="geometry"/>
                </mxCell>
                <mxCell id="5" value="" style="rounded=0;whiteSpace=wrap;html=1;sketch=1;fillColor=#f8cecc;strokeColor=#b85450;" vertex="1" parent="1">
                    <mxGeometry x="330" y="450" width="60" height="50" as="geometry"/>
                </mxCell>
                <mxCell id="7" value="Summaries" style="rounded=1;whiteSpace=wrap;html=1;sketch=1;fillColor=#dae8fc;strokeColor=#6c8ebf;fontSize=18;" vertex="1" parent="1">
                    <mxGeometry x="110" y="330" width="120" height="50" as="geometry"/>
                </mxCell>
                <mxCell id="8" value="Counters" style="rounded=1;whiteSpace=wrap;html=1;sketch=1;fillColor=#dae8fc;strokeColor=#6c8ebf;fontSize=18;" vertex="1" parent="1">
                    <mxGeometry x="110" y="390" width="120" height="50" as="geometry"/>
                </mxCell>
                <mxCell id="9" value="Histograms" style="rounded=1;whiteSpace=wrap;html=1;sketch=1;fillColor=#dae8fc;strokeColor=#6c8ebf;fontSize=18;" vertex="1" parent="1">
                    <mxGeometry x="110" y="270" width="120" height="50" as="geometry"/>
                </mxCell>
                <mxCell id="10" value="Gauges" style="rounded=1;whiteSpace=wrap;html=1;sketch=1;fillColor=#dae8fc;strokeColor=#6c8ebf;fontSize=18;" vertex="1" parent="1">
                    <mxGeometry x="110" y="450" width="120" height="50" as="geometry"/>
                </mxCell>
                <mxCell id="11" value="" style="rounded=0;whiteSpace=wrap;html=1;sketch=1;fillColor=#f8cecc;strokeColor=#b85450;" vertex="1" parent="1">
                    <mxGeometry x="395" y="450" width="60" height="50" as="geometry"/>
                </mxCell>
                <mxCell id="12" value="" style="rounded=0;whiteSpace=wrap;html=1;sketch=1;fillColor=#f8cecc;strokeColor=#b85450;" vertex="1" parent="1">
                    <mxGeometry x="462" y="450" width="60" height="50" as="geometry"/>
                </mxCell>
                <mxCell id="13" value="" style="endArrow=classic;html=1;fontSize=18;exitX=1;exitY=0.5;exitDx=0;exitDy=0;sketch=1;" edge="1" parent="1">
                    <mxGeometry width="50" height="50" relative="1" as="geometry">
                        <mxPoint x="234" y="475" as="sourcePoint"/>
                        <mxPoint x="324" y="475" as="targetPoint"/>
                    </mxGeometry>
                </mxCell>
                <mxCell id="14" value="" style="endArrow=classic;html=1;fontSize=18;exitX=1;exitY=0.5;exitDx=0;exitDy=0;sketch=1;" edge="1" parent="1">
                    <mxGeometry width="50" height="50" relative="1" as="geometry">
                        <mxPoint x="234" y="414.5" as="sourcePoint"/>
                        <mxPoint x="324" y="414.5" as="targetPoint"/>
                    </mxGeometry>
                </mxCell>
                <mxCell id="15" value="" style="endArrow=classic;html=1;fontSize=18;exitX=1;exitY=0.5;exitDx=0;exitDy=0;sketch=1;" edge="1" parent="1">
                    <mxGeometry width="50" height="50" relative="1" as="geometry">
                        <mxPoint x="234" y="355.5" as="sourcePoint"/>
                        <mxPoint x="324" y="355.5" as="targetPoint"/>
                    </mxGeometry>
                </mxCell>
                <mxCell id="16" value="" style="endArrow=classic;html=1;fontSize=16;exitX=1;exitY=0.5;exitDx=0;exitDy=0;sketch=1;" edge="1" parent="1">
                    <mxGeometry x="0.0222" y="15" width="50" height="50" relative="1" as="geometry">
                        <mxPoint x="234" y="294.5" as="sourcePoint"/>
                        <mxPoint x="324" y="294.5" as="targetPoint"/>
                        <mxPoint y="1" as="offset"/>
                    </mxGeometry>
                </mxCell>
                <mxCell id="17" value="内存映射文件" style="text;html=1;strokeColor=none;fillColor=none;align=center;verticalAlign=middle;whiteSpace=wrap;rounded=0;sketch=1;fontSize=20;fontFamily=Times New Roman;" vertex="1" parent="1">
                    <mxGeometry x="353" y="220" width="145" height="30" as="geometry"/>
                </mxCell>
                <mxCell id="18" value="MultiProcessCollector" style="rounded=1;whiteSpace=wrap;html=1;sketch=1;fontFamily=Times New Roman;fontSize=20;fillColor=#d5e8d4;strokeColor=#82b366;" vertex="1" parent="1">
                    <mxGeometry x="740" y="360" width="210" height="60" as="geometry"/>
                </mxCell>
                <mxCell id="19" value="" style="shape=curlyBracket;whiteSpace=wrap;html=1;rounded=1;sketch=1;fontFamily=Times New Roman;fontSize=20;direction=west;" vertex="1" parent="1">
                    <mxGeometry x="570" y="300" width="20" height="180" as="geometry"/>
                </mxCell>
                <mxCell id="20" value="收集" style="endArrow=classic;html=1;fontFamily=Times New Roman;fontSize=20;sketch=1;exitX=0.1;exitY=0.5;exitDx=0;exitDy=0;exitPerimeter=0;entryX=0;entryY=0.5;entryDx=0;entryDy=0;" edge="1" parent="1" source="19" target="18">
                    <mxGeometry x="-0.0714" y="20" width="50" height="50" relative="1" as="geometry">
                        <mxPoint x="620" y="340" as="sourcePoint"/>
                        <mxPoint x="680" y="390" as="targetPoint"/>
                        <mxPoint as="offset"/>
                    </mxGeometry>
                </mxCell>
                <mxCell id="23" value="写入" style="text;html=1;strokeColor=none;fillColor=none;align=center;verticalAlign=middle;whiteSpace=wrap;rounded=0;sketch=1;fontFamily=Times New Roman;fontSize=16;" vertex="1" parent="1">
                    <mxGeometry x="260" y="450" width="40" height="20" as="geometry"/>
                </mxCell>
                <mxCell id="24" value="写入" style="text;html=1;strokeColor=none;fillColor=none;align=center;verticalAlign=middle;whiteSpace=wrap;rounded=0;sketch=1;fontFamily=Times New Roman;fontSize=16;" vertex="1" parent="1">
                    <mxGeometry x="260" y="390" width="40" height="20" as="geometry"/>
                </mxCell>
                <mxCell id="25" value="写入" style="text;html=1;strokeColor=none;fillColor=none;align=center;verticalAlign=middle;whiteSpace=wrap;rounded=0;sketch=1;fontFamily=Times New Roman;fontSize=16;" vertex="1" parent="1">
                    <mxGeometry x="260" y="330" width="40" height="20" as="geometry"/>
                </mxCell>
                <mxCell id="26" value="写入" style="text;html=1;strokeColor=none;fillColor=none;align=center;verticalAlign=middle;whiteSpace=wrap;rounded=0;sketch=1;fontFamily=Times New Roman;fontSize=16;" vertex="1" parent="1">
                    <mxGeometry x="260" y="270" width="40" height="20" as="geometry"/>
                </mxCell>
                <mxCell id="28" value="Empty&lt;br&gt;CollectorRegistry" style="shape=process;whiteSpace=wrap;html=1;backgroundOutline=1;rounded=0;sketch=1;fontFamily=Times New Roman;fontSize=18;fillColor=#fff2cc;strokeColor=#d6b656;fontColor=#FF0000;fontStyle=1" vertex="1" parent="1">
                    <mxGeometry x="717.5" y="650" width="255" height="60" as="geometry"/>
                </mxCell>
                <mxCell id="30" value="&lt;font style=&quot;font-size: 20px&quot;&gt;generate_latest&lt;/font&gt;" style="shape=hexagon;perimeter=hexagonPerimeter2;whiteSpace=wrap;html=1;fixedSize=1;rounded=0;sketch=1;fontFamily=Times New Roman;fontSize=18;fillColor=#b1ddf0;strokeColor=#10739e;" vertex="1" parent="1">
                    <mxGeometry x="390" y="640" width="160" height="80" as="geometry"/>
                </mxCell>
                <mxCell id="31" value="" style="endArrow=classic;html=1;fontFamily=Times New Roman;fontSize=18;fontColor=#000000;sketch=1;exitX=0.5;exitY=1;exitDx=0;exitDy=0;entryX=0.5;entryY=0;entryDx=0;entryDy=0;" edge="1" parent="1" source="18" target="28">
                    <mxGeometry width="50" height="50" relative="1" as="geometry">
                        <mxPoint x="470" y="490" as="sourcePoint"/>
                        <mxPoint x="520" y="440" as="targetPoint"/>
                    </mxGeometry>
                </mxCell>
                <mxCell id="32" value="" style="endArrow=classic;html=1;fontFamily=Times New Roman;fontSize=18;fontColor=#000000;exitX=0;exitY=0.5;exitDx=0;exitDy=0;sketch=1;entryX=1;entryY=0.5;entryDx=0;entryDy=0;" edge="1" parent="1" source="28" target="30">
                    <mxGeometry width="50" height="50" relative="1" as="geometry">
                        <mxPoint x="470" y="490" as="sourcePoint"/>
                        <mxPoint x="520" y="440" as="targetPoint"/>
                    </mxGeometry>
                </mxCell>
                <mxCell id="33" value="Html&lt;br&gt;Output" style="ellipse;whiteSpace=wrap;html=1;rounded=0;sketch=1;fontFamily=Times New Roman;fontSize=18;fillColor=#ffcc99;strokeColor=#36393d;" vertex="1" parent="1">
                    <mxGeometry x="110" y="640" width="120" height="80" as="geometry"/>
                </mxCell>
                <mxCell id="34" value="" style="endArrow=classic;html=1;fontFamily=Times New Roman;fontSize=18;fontColor=#000000;sketch=1;exitX=0;exitY=0.5;exitDx=0;exitDy=0;entryX=1;entryY=0.5;entryDx=0;entryDy=0;" edge="1" parent="1" source="30" target="33">
                    <mxGeometry width="50" height="50" relative="1" as="geometry">
                        <mxPoint x="490" y="550" as="sourcePoint"/>
                        <mxPoint x="540" y="500" as="targetPoint"/>
                    </mxGeometry>
                </mxCell>
            </root>
        </mxGraphModel>
    </diagram>
</mxfile>